<svg xmlns="http://www.w3.org/2000/svg" xmlns:xlink="http://www.w3.org/1999/xlink" width="2000" zoomAndPan="magnify" viewBox="0 0 1500 1499.999933" height="2000" preserveAspectRatio="xMidYMid meet" version="1.0"><defs><clipPath id="de8d02623e"><path d="M 136 69 L 1363.152344 69 L 1363.152344 1430 L 136 1430 Z M 136 69 " clip-rule="nonzero"/></clipPath><clipPath id="f9f8f4c026"><path d="M 207.347656 69.515625 L 1292.652344 69.515625 C 1311.351562 69.515625 1329.285156 76.941406 1342.503906 90.164062 C 1355.726562 103.386719 1363.152344 121.316406 1363.152344 140.015625 L 1363.152344 1359.984375 C 1363.152344 1378.683594 1355.726562 1396.613281 1342.503906 1409.835938 C 1329.285156 1423.058594 1311.351562 1430.484375 1292.652344 1430.484375 L 207.347656 1430.484375 C 188.648438 1430.484375 170.714844 1423.058594 157.496094 1409.835938 C 144.273438 1396.613281 136.847656 1378.683594 136.847656 1359.984375 L 136.847656 140.015625 C 136.847656 121.316406 144.273438 103.386719 157.496094 90.164062 C 170.714844 76.941406 188.648438 69.515625 207.347656 69.515625 Z M 207.347656 69.515625 " clip-rule="nonzero"/></clipPath><clipPath id="5a76499775"><path d="M 386.070312 231.703125 L 1113.929688 231.703125 L 1113.929688 1269 L 386.070312 1269 Z M 386.070312 231.703125 " clip-rule="nonzero"/></clipPath><clipPath id="57454611b2"><path d="M 422.820312 231.703125 L 1077.179688 231.703125 C 1086.925781 231.703125 1096.273438 235.578125 1103.164062 242.46875 C 1110.058594 249.359375 1113.929688 258.707031 1113.929688 268.453125 L 1113.929688 1231.546875 C 1113.929688 1241.292969 1110.058594 1250.640625 1103.164062 1257.53125 C 1096.273438 1264.421875 1086.925781 1268.296875 1077.179688 1268.296875 L 422.820312 1268.296875 C 413.074219 1268.296875 403.726562 1264.421875 396.835938 1257.53125 C 389.941406 1250.640625 386.070312 1241.292969 386.070312 1231.546875 L 386.070312 268.453125 C 386.070312 258.707031 389.941406 249.359375 396.835938 242.46875 C 403.726562 235.578125 413.074219 231.703125 422.820312 231.703125 Z M 422.820312 231.703125 " clip-rule="nonzero"/></clipPath><clipPath id="31bb8c67df"><path d="M 696.707031 391.007812 L 803.292969 391.007812 L 803.292969 663.300781 L 696.707031 663.300781 Z M 696.707031 391.007812 " clip-rule="nonzero"/></clipPath><clipPath id="61cc1f4ea3"><path d="M 750 391.007812 C 764.132812 391.007812 777.691406 396.621094 787.683594 406.617188 C 797.679688 416.609375 803.292969 430.164062 803.292969 444.300781 L 803.292969 609.972656 C 803.292969 624.109375 797.679688 637.664062 787.683594 647.65625 C 777.691406 657.652344 764.132812 663.265625 750 663.265625 C 735.867188 663.265625 722.308594 657.652344 712.316406 647.65625 C 702.320312 637.664062 696.707031 624.109375 696.707031 609.972656 L 696.707031 444.300781 C 696.707031 430.164062 702.320312 416.609375 712.316406 406.617188 C 722.308594 396.621094 735.867188 391.007812 750 391.007812 Z M 750 391.007812 " clip-rule="nonzero"/></clipPath><clipPath id="994a433ded"><path d="M 993.453125 719.679688 L 1234.066406 719.679688 L 1234.066406 804.292969 L 993.453125 804.292969 Z M 993.453125 719.679688 " clip-rule="nonzero"/></clipPath><clipPath id="1cf8c1c17d"><path d="M 1234.066406 761.988281 C 1234.066406 785.351562 1215.125 804.292969 1191.761719 804.292969 L 1036.074219 804.292969 C 1012.707031 804.292969 993.769531 785.351562 993.769531 761.988281 C 993.769531 738.621094 1012.707031 719.679688 1036.074219 719.679688 L 1191.761719 719.679688 C 1215.125 719.679688 1234.066406 738.621094 1234.066406 761.988281 Z M 1234.066406 761.988281 " clip-rule="nonzero"/></clipPath><clipPath id="8a6f98bcd8"><path d="M 1022 626 L 1206 626 L 1206 805 L 1022 805 Z M 1022 626 " clip-rule="nonzero"/></clipPath><clipPath id="45bbb7e1f9"><path d="M 1022.277344 723.292969 L 1136.789062 626.28125 L 1205.605469 707.511719 L 1091.097656 804.523438 Z M 1022.277344 723.292969 " clip-rule="nonzero"/></clipPath><clipPath id="94299e0c0f"><path d="M 1022.277344 723.292969 L 1136.789062 626.28125 L 1205.605469 707.511719 L 1091.097656 804.523438 Z M 1022.277344 723.292969 " clip-rule="nonzero"/></clipPath><clipPath id="d25be1bf4e"><path d="M 1022 704 L 1206 704 L 1206 874 L 1022 874 Z M 1022 704 " clip-rule="nonzero"/></clipPath><clipPath id="10d1567650"><path d="M 1077.75 704.808594 L 1205.703125 783.242188 L 1150.0625 874.011719 L 1022.109375 795.578125 Z M 1077.75 704.808594 " clip-rule="nonzero"/></clipPath><clipPath id="ef012c387c"><path d="M 1150.417969 873.851562 L 1022.46875 795.421875 L 1078.105469 704.652344 L 1206.058594 783.082031 Z M 1150.417969 873.851562 " clip-rule="nonzero"/></clipPath><clipPath id="4161aa39e1"><path d="M 696.707031 852.460938 L 803.292969 852.460938 L 803.292969 1124.753906 L 696.707031 1124.753906 Z M 696.707031 852.460938 " clip-rule="nonzero"/></clipPath><clipPath id="2cea09e086"><path d="M 750 852.460938 C 764.132812 852.460938 777.691406 858.074219 787.683594 868.070312 C 797.679688 878.0625 803.292969 891.617188 803.292969 905.753906 L 803.292969 1071.425781 C 803.292969 1085.5625 797.679688 1099.117188 787.683594 1109.109375 C 777.691406 1119.105469 764.132812 1124.71875 750 1124.71875 C 735.867188 1124.71875 722.308594 1119.105469 712.316406 1109.109375 C 702.320312 1099.117188 696.707031 1085.5625 696.707031 1071.425781 L 696.707031 905.753906 C 696.707031 891.617188 702.320312 878.0625 712.316406 868.070312 C 722.308594 858.074219 735.867188 852.460938 750 852.460938 Z M 750 852.460938 " clip-rule="nonzero"/></clipPath></defs><g clip-path="url(#de8d02623e)"><g clip-path="url(#f9f8f4c026)"><path fill="#f05408" d="M 136.847656 69.515625 L 1363.152344 69.515625 L 1363.152344 1429.949219 L 136.847656 1429.949219 Z M 136.847656 69.515625 " fill-opacity="1" fill-rule="nonzero"/></g></g><g clip-path="url(#5a76499775)"><g clip-path="url(#57454611b2)"><path fill="#ffffff" d="M 386.070312 231.703125 L 1113.929688 231.703125 L 1113.929688 1269.46875 L 386.070312 1269.46875 Z M 386.070312 231.703125 " fill-opacity="1" fill-rule="nonzero"/></g></g><g clip-path="url(#31bb8c67df)"><g clip-path="url(#61cc1f4ea3)"><path fill="#f05408" d="M 696.707031 391.007812 L 803.292969 391.007812 L 803.292969 663.300781 L 696.707031 663.300781 Z M 696.707031 391.007812 " fill-opacity="1" fill-rule="nonzero"/></g></g><g clip-path="url(#994a433ded)"><g clip-path="url(#1cf8c1c17d)"><path fill="#f05408" d="M 1234.066406 719.679688 L 1234.066406 804.292969 L 993.78125 804.292969 L 993.78125 719.679688 Z M 1234.066406 719.679688 " fill-opacity="1" fill-rule="nonzero"/></g></g><g clip-path="url(#8a6f98bcd8)"><g clip-path="url(#45bbb7e1f9)"><g clip-path="url(#94299e0c0f)"><path fill="#f05408" d="M 1094.507812 684.339844 L 1094.601562 684.449219 L 1090.671875 687.777344 C 1090.335938 688.0625 1089.976562 688.324219 1089.636719 688.601562 C 1087.421875 690.449219 1085.179688 692.269531 1082.882812 694.007812 C 1082.867188 694.019531 1082.851562 694.03125 1082.828125 694.039062 C 1064.605469 707.824219 1043.835938 718.078125 1022.289062 723.304688 L 1090.90625 804.296875 C 1100.214844 782.4375 1115.117188 762.46875 1133.34375 746.113281 L 1133.25 746.003906 L 1137.179688 742.675781 C 1137.515625 742.390625 1137.875 742.128906 1138.214844 741.851562 C 1140.429688 740 1142.671875 738.183594 1144.96875 736.445312 C 1144.984375 736.433594 1145 736.417969 1145.015625 736.40625 C 1163.238281 722.636719 1184.007812 712.382812 1205.5625 707.148438 L 1171.257812 666.660156 L 1136.953125 626.164062 C 1127.636719 648.015625 1112.738281 667.988281 1094.507812 684.339844 Z M 1094.507812 684.339844 " fill-opacity="1" fill-rule="nonzero"/></g></g></g><g clip-path="url(#d25be1bf4e)"><g clip-path="url(#10d1567650)"><g clip-path="url(#ef012c387c)"><path fill="#f05408" d="M 1090.835938 817.421875 L 1090.910156 817.304688 L 1095.300781 819.996094 C 1095.675781 820.226562 1096.035156 820.480469 1096.40625 820.722656 C 1098.855469 822.246094 1101.285156 823.804688 1103.652344 825.445312 C 1103.671875 825.457031 1103.6875 825.464844 1103.699219 825.484375 C 1122.492188 838.484375 1138.726562 855.003906 1150.429688 873.835938 L 1178.164062 828.585938 L 1205.902344 783.335938 C 1182.230469 781.328125 1158.605469 773.417969 1137.367188 761.222656 L 1137.292969 761.34375 L 1132.902344 758.648438 C 1132.527344 758.421875 1132.167969 758.164062 1131.796875 757.925781 C 1129.347656 756.398438 1126.917969 754.839844 1124.550781 753.199219 C 1124.53125 753.191406 1124.515625 753.179688 1124.5 753.167969 C 1105.71875 740.167969 1089.484375 723.644531 1077.773438 704.808594 L 1050.042969 750.050781 L 1022.304688 795.300781 C 1045.972656 797.316406 1069.605469 805.21875 1090.835938 817.421875 Z M 1090.835938 817.421875 " fill-opacity="1" fill-rule="nonzero"/></g></g></g><g clip-path="url(#4161aa39e1)"><g clip-path="url(#2cea09e086)"><path fill="#f05408" d="M 696.707031 852.460938 L 803.292969 852.460938 L 803.292969 1124.753906 L 696.707031 1124.753906 Z M 696.707031 852.460938 " fill-opacity="1" fill-rule="nonzero"/></g></g></svg>